<?xml version="1.0" encoding="UTF-8"?>
<svg version="1.1" xmlns="http://www.w3.org/2000/svg" width="512" height="512">
<path d="M0 0 C3.36905512 0.00517178 6.73803886 -0.00223229 10.1070866 -0.00947207 C18.06977433 -0.02637519 26.03227 -0.02300396 33.99495292 -0.00618243 C42.14757927 0.01072021 50.29966937 -0.00509192 58.45223719 -0.03740531 C65.5093852 -0.06429368 72.56636828 -0.07132558 79.62356228 -0.06289023 C83.81314208 -0.05801548 88.00240018 -0.05987409 92.19193816 -0.08067775 C113.28778491 -0.17486388 134.39556306 -0.10771066 153.62996268 9.82023358 C154.40468925 10.20445477 155.17941581 10.58867597 155.97761893 10.98454022 C162.78888876 14.46893044 168.73927192 18.5951548 174.56746268 23.57023358 C175.49816581 24.3398039 176.42886893 25.10937421 177.38777518 25.90226483 C198.0503798 43.71584736 210.43621636 69.46438241 212.56746268 96.57023358 C213.2281269 110.72531595 211.74014739 123.90656537 207.27449393 137.41398358 C205.86939483 143.68647019 208.11419165 148.0262134 211.06746268 153.44523358 C228.29593293 186.65356295 235.78883346 224.50490477 235.81746268 261.69523358 C235.81813743 262.48747327 235.81881217 263.27971295 235.81950736 264.0959599 C235.8006828 278.09387079 234.95587068 291.75446738 232.56746268 305.57023358 C232.406491 306.51012128 232.24551932 307.45000897 232.07966971 308.41837811 C222.45828759 362.23711789 193.23720773 416.60700143 150.56746268 451.57023358 C149.72441581 452.30113202 148.88136893 453.03203046 148.01277518 453.78507733 C106.96455241 488.99310581 52.16952802 512.32114693 -2.30363107 512.80851483 C-3.67133142 512.82320561 -3.67133142 512.82320561 -5.06666207 512.83819318 C-25.18947953 513.00982615 -44.67828144 512.86167538 -64.43253732 508.57023358 C-65.4602424 508.35060956 -66.48794747 508.13098554 -67.54679513 507.90470624 C-123.05894559 495.721005 -175.42836954 464.84665246 -210.43253732 419.57023358 C-211.19437325 418.63695233 -211.95620919 417.70367108 -212.74113107 416.74210858 C-220.58433638 406.95378835 -227.05634463 396.35542714 -233.43253732 385.57023358 C-233.82715158 384.90797772 -234.22176583 384.24572186 -234.6283381 383.56339765 C-255.81790085 347.55971973 -264.90579968 304.88813841 -264.74503732 263.50773358 C-264.74288217 262.51100629 -264.74072701 261.51427899 -264.73850656 260.48734784 C-264.68821545 246.00292778 -264.40309491 231.79819837 -261.43253732 217.57023358 C-261.22854318 216.57797772 -261.02454904 215.58572186 -260.81437325 214.56339765 C-253.37493122 179.38035957 -239.90466963 145.59986153 -218.43253732 116.57023358 C-217.80049386 115.70495038 -217.80049386 115.70495038 -217.15568185 114.82218671 C-211.83166389 107.56272919 -206.1020578 100.82643143 -199.94425607 94.26945233 C-197.9089288 92.08218773 -195.9713268 89.86205556 -194.05753732 87.57023358 C-168.31471484 58.12384466 -130.75598221 37.16847797 -94.05753732 25.07023358 C-85.3206536 22.18350936 -78.18684905 18.98770975 -70.69425607 13.70695233 C-66.9831473 11.27584276 -63.26313794 9.47187702 -59.18253732 7.75773358 C-58.57595284 7.49202558 -57.96936837 7.22631757 -57.34440255 6.9525578 C-55.06932001 6.03560877 -52.774002 5.30430645 -50.43253732 4.57023358 C-48.85032136 4.06935727 -48.85032136 4.06935727 -47.23614144 3.55836225 C-31.8501417 -0.76921709 -15.83666586 -0.03540567 0 0 Z " fill="#FCD23A" transform="translate(270.432537317276,-0.5702335834503174)"/>
<path d="M0 0 C1.49462795 -0.00763881 2.98925202 -0.0160692 4.48387146 -0.02522278 C8.51550109 -0.04701432 12.54705494 -0.05594668 16.57873678 -0.06104922 C19.109203 -0.06471328 21.63964999 -0.07096396 24.1701088 -0.07805061 C33.03187159 -0.10249891 41.89357632 -0.11558547 50.75537109 -0.11914062 C58.95950831 -0.12276481 67.16326892 -0.15259165 75.36729133 -0.19454521 C82.45399495 -0.22948818 89.5405753 -0.24469323 96.62736428 -0.24538666 C100.84055956 -0.24617183 105.05337099 -0.25455247 109.26647568 -0.28338432 C130.46176361 -0.41958172 151.57247956 -0.4291393 170.91845703 9.55639648 C171.69318359 9.94061768 172.46791016 10.32483887 173.26611328 10.72070312 C180.07738311 14.20509335 186.02776627 18.3313177 191.85595703 23.30639648 C192.78666016 24.0759668 193.71736328 24.84553711 194.67626953 25.63842773 C215.33887414 43.45201026 227.7247107 69.20054531 229.85595703 96.30639648 C231.2601784 126.39258623 221.62151355 152.72147378 201.85595703 175.30639648 C201.20240234 176.06049805 200.54884766 176.81459961 199.87548828 177.59155273 C191.89646541 186.14901224 181.75056269 192.39420061 171.54345703 197.93139648 C160.01786729 204.23927427 153.61012507 210.64200984 148.81445312 222.98754883 C147.72683667 226.75348315 147.58414452 229.98258394 147.54736328 233.90014648 C147.52221311 235.3571819 147.49681495 236.81421306 147.47119141 238.27124023 C147.44245408 240.54222595 147.41840139 242.81313806 147.3996582 245.08422852 C147.37790873 247.29407072 147.33848126 249.50309187 147.29736328 251.71264648 C147.28390869 253.02555664 147.2704541 254.3384668 147.2565918 255.69116211 C146.76395184 260.13662977 145.64737157 263.8348774 142.10595703 266.74389648 C138.45354147 267.65700037 136.48283887 267.47437538 132.85595703 266.30639648 C126.98574246 260.23645436 122.58881473 252.52773079 117.98095703 245.49389648 C103.51061457 222.53258255 103.51061457 222.53258255 79.89676285 210.67424393 C73.5219304 209.52520476 66.94200971 209.76100524 60.48807335 209.78997612 C57.61329339 209.80278831 54.73944849 209.79115038 51.86470032 209.77394104 C46.78938119 209.74740431 41.714297 209.74163862 36.63891602 209.74304199 C28.52980629 209.74528049 20.42098849 209.73068084 12.31199074 209.68745613 C9.50940031 209.67776421 6.70728807 209.68625832 3.90470886 209.69615173 C-27.26309724 209.65799637 -53.81160416 199.65359404 -76.01904297 177.80639648 C-81.05092368 172.69836477 -85.45546626 167.48386718 -89.14404297 161.30639648 C-89.79888672 160.21069336 -90.45373047 159.11499023 -91.12841797 157.98608398 C-104.51483987 134.68507754 -108.94244926 107.45482995 -103.18310547 81.10717773 C-96.00380515 54.84605289 -79.38429536 28.40971013 -55.39453125 14.27563477 C-37.75403021 4.45724966 -20.19752415 0.00660754 0 0 Z " fill="#F74E82" transform="translate(253.14404296875,-0.306396484375)"/>
<path d="M0 0 C1.72814068 -0.01104066 3.45627522 -0.0230826 5.18440247 -0.03605652 C8.77018139 -0.05672931 12.3553475 -0.0583692 15.94116211 -0.04711914 C20.49028449 -0.03539223 25.03663091 -0.08316608 29.58524609 -0.1465807 C33.14173716 -0.18752941 36.69757553 -0.1909101 40.25426674 -0.18417931 C41.92971559 -0.18635411 43.60520461 -0.20087349 45.28041649 -0.22913551 C56.28722569 -0.39376192 64.13405351 1.30082281 73.71894836 6.8273468 C87.84247701 14.69140812 105.18646865 16.23767413 121.08179665 16.02739525 C123.42611618 15.99910016 125.7694568 15.99489122 128.11393738 15.99690247 C134.76536462 16.00038506 141.41609568 15.97726111 148.06713867 15.90356445 C152.17089812 15.85977294 156.27318864 15.85539204 160.37711143 15.87514687 C161.92272775 15.87505025 163.46842267 15.86046583 165.01374245 15.83019066 C175.57440188 15.6284657 182.20262441 17.32662841 190.20703125 24.76953125 C190.89457993 25.36933304 191.5821286 25.96913483 192.29051208 26.58711243 C194.01977662 28.11023783 195.64999646 29.69303382 197.26953125 31.33203125 C197.85677979 31.9257251 198.44402832 32.51941895 199.04907227 33.13110352 C208.86754568 43.3565048 216.15287457 55.55495002 221.20703125 68.76953125 C221.46387695 69.43275391 221.72072266 70.09597656 221.98535156 70.77929688 C231.04477104 95.41068385 228.04424963 125.24727822 217.30761719 148.73730469 C205.05675644 174.42124074 183.9127311 193.71327481 157.0546875 203.30859375 C143.11413782 207.96035056 129.87166006 209.04898198 115.26702881 209.01336098 C112.27179672 209.00769863 109.27694202 209.01703741 106.28173828 209.03056335 C97.7743952 209.06741066 89.2671866 209.08624107 80.75976562 209.07495117 C75.53264112 209.06906969 70.30605516 209.08749859 65.07904053 209.12084007 C63.10172024 209.12873906 61.12434039 209.12759269 59.14703369 209.11681557 C44.69963012 209.0414194 32.22540824 210.31984469 21.20703125 220.76953125 C17.67240933 224.78486176 14.62417746 228.9727826 11.70703125 233.45703125 C10.83942817 234.77141893 9.97088921 236.08518918 9.1015625 237.3984375 C8.63959473 238.09727051 8.17762695 238.79610352 7.70166016 239.51611328 C4.95485905 243.65740276 2.18120131 247.77998752 -0.60546875 251.89453125 C-1.14429688 252.69979248 -1.683125 253.50505371 -2.23828125 254.3347168 C-9.48200263 264.99920921 -9.48200263 264.99920921 -14.79296875 266.76953125 C-18.4425745 266.76953125 -19.96716802 266.04587073 -22.79296875 263.76953125 C-25.12641001 260.25895449 -25.05948504 257.09371145 -25.1015625 252.94921875 C-25.12674862 251.59504826 -25.15214621 250.2408817 -25.17773438 248.88671875 C-25.20627666 246.77410152 -25.23031606 244.66155325 -25.24926758 242.54882812 C-25.36114012 232.09427779 -26.00771231 222.66203345 -31.54296875 213.51953125 C-31.9915625 212.75125 -32.44015625 211.98296875 -32.90234375 211.19140625 C-37.65295309 205.10591494 -43.65501515 201.5232301 -50.41796875 198.01953125 C-75.31427485 184.61382797 -94.37946856 163.40748862 -103.02148438 136.25512695 C-111.07303653 109.19060064 -109.22139746 81.25427473 -96.04296875 56.08203125 C-82.36447011 31.11885156 -60.68493041 12.78291913 -33.491745 4.39155579 C-22.20337599 1.13305587 -11.71245229 -0.01735386 0 0 Z " fill="#F7F9FC" transform="translate(135.79296875,192.23046875)"/>
<path d="M0 0 C-0.99966797 0.69222656 -0.99966797 0.69222656 -2.01953125 1.3984375 C-23.62969807 16.69178633 -38.41841533 36.18238284 -45 62 C-45.29777344 63.02609375 -45.59554687 64.0521875 -45.90234375 65.109375 C-52.74571109 91.47368418 -46.51969225 118.12305227 -33.5625 141.375 C-19.82370733 163.9480496 2.25111541 181.28569891 28 188 C39.53298015 190.76325938 50.50947217 191.41040777 62.33235741 191.34955978 C65.30726161 191.33557654 68.28151689 191.34239923 71.25642395 191.35440063 C79.70151445 191.38503258 88.14644144 191.38049081 96.59155273 191.36035156 C101.7908456 191.34937194 106.98964333 191.36274435 112.18886757 191.39024734 C114.15141816 191.3956428 116.1140197 191.39174098 118.07652855 191.37784958 C133.4729156 191.2700274 146.37837314 192.70443081 158 204 C164 210.41547862 164 210.41547862 164 214.625 C163.67 215.40875 163.34 216.1925 163 217 C161.18046598 221.66359386 160.73831552 225.59745294 160.69140625 230.59375 C160.66625608 232.05078542 160.64085791 233.50781658 160.61523438 234.96484375 C160.58649705 237.23582946 160.56244436 239.50674157 160.54370117 241.77783203 C160.5219517 243.98767423 160.48252423 246.19669538 160.44140625 248.40625 C160.42795166 249.71916016 160.41449707 251.03207031 160.40063477 252.38476562 C159.90799481 256.83023328 158.79141454 260.52848092 155.25 263.4375 C151.59758444 264.35060389 149.62688184 264.1679789 146 263 C140.12978543 256.93005788 135.7328577 249.2213343 131.125 242.1875 C116.65465753 219.22618606 116.65465753 219.22618606 93.04080582 207.36784744 C86.66597337 206.21880828 80.08605268 206.45460876 73.63211632 206.48357964 C70.75733636 206.49639183 67.88349146 206.4847539 65.00874329 206.46754456 C59.93342416 206.44100782 54.85833997 206.43524214 49.78295898 206.43664551 C41.67384926 206.438884 33.56503146 206.42428435 25.45603371 206.38105965 C22.65344328 206.37136772 19.85133104 206.37986184 17.04875183 206.38975525 C-14.11905427 206.35159988 -40.66756119 196.34719756 -62.875 174.5 C-67.90688071 169.39196829 -72.31142329 164.1774707 -76 158 C-76.65484375 156.90429688 -77.3096875 155.80859375 -77.984375 154.6796875 C-91.3707969 131.37868106 -95.79840629 104.14843346 -90.0390625 77.80078125 C-83.59039391 54.21223035 -69.84866388 29.18578514 -48.25 16.25 C-46.18110976 15.13933261 -44.09625648 14.05811041 -42 13 C-40.65602041 12.30252556 -39.31228332 11.6045837 -37.96875 10.90625 C-29.09144781 6.35095385 -20.565251 2.36871057 -10.75 0.25 C-9.56921875 -0.01296875 -8.3884375 -0.2759375 -7.171875 -0.546875 C-4.29265279 -0.95819246 -2.68678103 -0.98426632 0 0 Z " fill="#DD3A71" transform="translate(240,3)"/>
<path d="M0 0 C1.93681944 0.02517037 3.87367122 0.04796778 5.81054688 0.06835938 C10.47868873 0.12253367 15.14521805 0.20829813 19.8125 0.3125 C19.8125 0.6425 19.8125 0.9725 19.8125 1.3125 C18.15927734 1.62380859 18.15927734 1.62380859 16.47265625 1.94140625 C-4.20445071 6.04878621 -22.00520928 13.84951975 -37.296875 28.66015625 C-39.1875 30.3125 -39.1875 30.3125 -41.1875 30.3125 C-41.45304687 30.90160156 -41.71859375 31.49070313 -41.9921875 32.09765625 C-43.21886826 34.37062354 -44.5316234 35.89043351 -46.3125 37.75 C-62.97275264 56.51870785 -71.76961491 83.6445609 -70.59765625 108.5703125 C-68.66383635 134.35098675 -59.13071667 155.86596123 -42.1875 175.3125 C-41.64738281 175.93769531 -41.10726562 176.56289063 -40.55078125 177.20703125 C-32.80592563 185.53714044 -22.72257883 191.60388151 -12.8125 197 C-3.06623661 202.34457617 4.09508205 207.91748168 8.8125 218.3125 C9.17166504 219.02349854 9.53083008 219.73449707 9.90087891 220.46704102 C11.56219157 224.42866296 12.35264022 226.98296945 10.69458008 231.06420898 C8.79761239 234.05948988 6.74792297 236.83332105 4.5625 239.625 C3.06228857 241.64567638 1.56228733 243.66650882 0.0625 245.6875 C-0.67097656 246.65171875 -1.40445313 247.6159375 -2.16015625 248.609375 C-4.72408329 252.02794439 -7.09104094 255.55559829 -9.4375 259.125 C-13.30866041 264.98593686 -13.30866041 264.98593686 -17.1875 266.3125 C-20.87294705 266.15893971 -22.6534431 265.75995308 -25.5 263.375 C-28.46903561 259.7461787 -28.33175262 257.33708791 -28.3984375 252.6875 C-28.42654696 251.32681173 -28.45521159 249.96613484 -28.484375 248.60546875 C-28.52530308 246.47087428 -28.56220042 244.3364828 -28.58886719 242.20166016 C-28.73028488 231.77332452 -29.39433228 222.21806915 -34.9375 213.0625 C-35.38609375 212.29421875 -35.8346875 211.5259375 -36.296875 210.734375 C-41.04748434 204.64888369 -47.0495464 201.06619885 -53.8125 197.5625 C-78.7088061 184.15679672 -97.77399981 162.95045737 -106.41601562 135.7980957 C-114.46756778 108.73356939 -112.61592871 80.79724348 -99.4375 55.625 C-85.30274295 29.82915139 -62.91535938 11.66531149 -34.83540344 3.26957703 C-23.12442217 -0.00568022 -12.09251253 -0.27843564 0 0 Z " fill="#DDDDDC" transform="translate(139.1875,192.6875)"/>
<path d="M0 0 C4.95084386 3.65419428 9.94276922 8.71718867 10.9609375 15.015625 C11.07795433 21.5217605 9.69823005 26.62009551 5.19921875 31.4765625 C-0.04571637 36.11162144 -4.8642759 37.53288935 -11.7421875 37.37890625 C-17.13428022 36.47489071 -21.49285703 33.40196345 -24.7890625 29.0859375 C-27.79494735 24.00404585 -28.85549969 19.79959627 -28.375 13.9375 C-26.37067909 7.68305284 -22.65727362 3.69754206 -17.375 -0.0625 C-12.3969279 -2.55153605 -5.14098912 -1.61845954 0 0 Z " fill="#7B58BB" transform="translate(204.375,281.0625)"/>
<path d="M0 0 C5.04508901 3.67380721 8.14019951 7.66685028 9.1640625 13.90234375 C9.45387938 19.95036453 8.79748282 24.44594677 5.1875 29.37890625 C1.57827632 33.27949956 -2.48761527 35.72948514 -7.80078125 36.23828125 C-13.86858083 36.39773933 -17.61461141 36.25047063 -22.3125 32 C-26.61496451 27.50524658 -29.58759182 23.53166973 -29.6875 17.1875 C-29.53683549 11.15205708 -27.80585882 7.55699443 -23.62890625 3.2734375 C-17.07759006 -2.67205806 -8.06761809 -4.56195482 0 0 Z " fill="#F8F7FB" transform="translate(325.3125,89)"/>
<path d="M0 0 C5.09473426 3.07606597 9.40478922 7.27686765 11.3125 13 C11.85031878 19.00909059 11.78100491 23.85704445 8.3125 29 C4.65178968 33.14238273 1.06548229 36.54433397 -4.51953125 37.46875 C-11.52212209 37.54217166 -16.43516605 36.85999093 -21.6875 32 C-26.67053588 25.61149246 -27.62086578 19.93360912 -26.6875 12 C-24.70359516 6.4840029 -21.00730645 2.67955228 -15.9296875 -0.15625 C-10.52019963 -2.1918761 -5.46054172 -1.48082487 0 0 Z " fill="#F7F7FB" transform="translate(252.6875,88)"/>
<path d="M0 0 C4.63690993 2.68352865 7.48436265 6.41654929 9.5625 11.3125 C10.50671563 18.38313795 9.81130971 24.47728407 5.5625 30.3125 C1.04524057 34.71393227 -3.07556406 36.4044318 -9.3125 36.6875 C-15.10442338 36.54980197 -18.71724289 35.01828766 -22.90625 30.8515625 C-27.63645807 25.43382418 -29.02137219 21.30742677 -28.87890625 14.203125 C-28.02113372 8.58585358 -24.97679805 4.64966487 -20.8671875 0.8671875 C-14.77566108 -3.34096843 -6.54877872 -2.99337833 0 0 Z " fill="#7A57BA" transform="translate(134.4375,281.6875)"/>
<path d="M0 0 C6.0916216 2.77417303 10.11778366 7.11473822 12.74609375 13.3125 C13.7613384 19.59633002 12.9449353 24.37293846 9.2421875 29.5546875 C5.24673911 34.24907856 1.63057244 36.85006206 -4.55078125 37.5859375 C-11.12678491 37.85819243 -15.21635841 36.5821999 -20.25390625 32.3125 C-25.26328088 26.91778885 -25.60411828 22.46569549 -25.53515625 15.328125 C-25.02184659 9.82430481 -22.81950085 6.760675 -18.75390625 3 C-12.75204046 -1.05125941 -7.09008646 -2.16266069 0 0 Z " fill="#F8F7FB" transform="translate(392.25390625,87.6875)"/>
<path d="M0 0 C4.65571205 2.73583079 7.58439891 6.63215312 9.6875 11.5625 C10.82632364 17.73661824 9.9161881 23.14663609 6.6875 28.5625 C2.95885233 32.46226918 -1.17246825 36.16351907 -6.6796875 36.86328125 C-13.0857781 36.89321625 -17.41558863 36.39329928 -22.1953125 31.72265625 C-27.47576941 25.98256442 -28.76297095 21.93697755 -28.6484375 14.16015625 C-27.9733539 8.94003305 -25.37075231 5.47639525 -21.5859375 1.95703125 C-15.13232639 -2.78358432 -7.32665013 -3.02592051 0 0 Z " fill="#7A57BA" transform="translate(275.3125,281.4375)"/>
</svg>
